<mxfile host="app.diagrams.net" modified="2021-03-01T15:16:37.853Z" agent="5.0 (Windows NT 10.0; Win64; x64) AppleWebKit/537.36 (KHTML, like Gecko) Chrome/88.0.4324.182 Safari/537.36 Edg/88.0.705.81" etag="7UHOUsIGmYxWJzw7MukX" version="14.4.3" type="github">
  <diagram id="Vwi1EXBxK2TPIhp4Lb0i" name="Page-1">
    <mxGraphModel dx="884" dy="743" grid="1" gridSize="10" guides="1" tooltips="1" connect="1" arrows="1" fold="1" page="1" pageScale="1" pageWidth="1654" pageHeight="1169" math="0" shadow="0">
      <root>
        <mxCell id="0" />
        <mxCell id="1" parent="0" />
        <mxCell id="5gjrMnYh9Ee4sZ9mC4aX-1" value="" style="endArrow=none;html=1;" edge="1" parent="1">
          <mxGeometry width="50" height="50" relative="1" as="geometry">
            <mxPoint x="1400" y="270" as="sourcePoint" />
            <mxPoint x="1460" y="270" as="targetPoint" />
          </mxGeometry>
        </mxCell>
        <mxCell id="5gjrMnYh9Ee4sZ9mC4aX-2" value="" style="endArrow=none;html=1;" edge="1" parent="1">
          <mxGeometry width="50" height="50" relative="1" as="geometry">
            <mxPoint x="1385" y="280" as="sourcePoint" />
            <mxPoint x="1445" y="280" as="targetPoint" />
          </mxGeometry>
        </mxCell>
        <mxCell id="5gjrMnYh9Ee4sZ9mC4aX-3" value="" style="endArrow=none;html=1;exitX=1;exitY=0.25;exitDx=0;exitDy=0;jumpStyle=arc;rounded=0;" edge="1" parent="1" source="5gjrMnYh9Ee4sZ9mC4aX-39">
          <mxGeometry width="50" height="50" relative="1" as="geometry">
            <mxPoint x="900" y="380" as="sourcePoint" />
            <mxPoint x="1401.3326710668102" y="270" as="targetPoint" />
            <Array as="points">
              <mxPoint x="920" y="510" />
              <mxPoint x="920" y="270" />
            </Array>
          </mxGeometry>
        </mxCell>
        <mxCell id="5gjrMnYh9Ee4sZ9mC4aX-4" value="" style="endArrow=none;html=1;exitX=0.25;exitY=0;exitDx=0;exitDy=0;rounded=0;" edge="1" parent="1" source="5gjrMnYh9Ee4sZ9mC4aX-42">
          <mxGeometry width="50" height="50" relative="1" as="geometry">
            <mxPoint x="1035" y="500" as="sourcePoint" />
            <mxPoint x="1385" y="280" as="targetPoint" />
            <Array as="points">
              <mxPoint x="1040" y="280" />
            </Array>
          </mxGeometry>
        </mxCell>
        <mxCell id="5gjrMnYh9Ee4sZ9mC4aX-5" style="edgeStyle=orthogonalEdgeStyle;rounded=0;orthogonalLoop=1;jettySize=auto;html=1;exitX=0.5;exitY=1;exitDx=0;exitDy=0;entryX=0.5;entryY=1;entryDx=0;entryDy=0;" edge="1" parent="1" source="5gjrMnYh9Ee4sZ9mC4aX-53" target="5gjrMnYh9Ee4sZ9mC4aX-39">
          <mxGeometry relative="1" as="geometry">
            <Array as="points">
              <mxPoint x="1520" y="740" />
              <mxPoint x="860" y="740" />
            </Array>
          </mxGeometry>
        </mxCell>
        <mxCell id="5gjrMnYh9Ee4sZ9mC4aX-6" value="LO" style="edgeLabel;html=1;align=center;verticalAlign=middle;resizable=0;points=[];" vertex="1" connectable="0" parent="5gjrMnYh9Ee4sZ9mC4aX-5">
          <mxGeometry x="-0.9669" y="-1" relative="1" as="geometry">
            <mxPoint as="offset" />
          </mxGeometry>
        </mxCell>
        <mxCell id="5gjrMnYh9Ee4sZ9mC4aX-7" style="edgeStyle=orthogonalEdgeStyle;rounded=0;orthogonalLoop=1;jettySize=auto;html=1;exitX=0.25;exitY=1;exitDx=0;exitDy=0;entryX=0.75;entryY=1;entryDx=0;entryDy=0;" edge="1" parent="1" source="5gjrMnYh9Ee4sZ9mC4aX-53" target="5gjrMnYh9Ee4sZ9mC4aX-39">
          <mxGeometry relative="1" as="geometry">
            <Array as="points">
              <mxPoint x="1505" y="730" />
              <mxPoint x="880" y="730" />
            </Array>
          </mxGeometry>
        </mxCell>
        <mxCell id="5gjrMnYh9Ee4sZ9mC4aX-8" value="HI" style="edgeLabel;html=1;align=center;verticalAlign=middle;resizable=0;points=[];" vertex="1" connectable="0" parent="5gjrMnYh9Ee4sZ9mC4aX-7">
          <mxGeometry x="-0.9623" relative="1" as="geometry">
            <mxPoint as="offset" />
          </mxGeometry>
        </mxCell>
        <mxCell id="5gjrMnYh9Ee4sZ9mC4aX-9" style="edgeStyle=orthogonalEdgeStyle;rounded=0;orthogonalLoop=1;jettySize=auto;html=1;entryX=0.75;entryY=1;entryDx=0;entryDy=0;fillColor=#f8cecc;strokeColor=#b85450;" edge="1" parent="1" source="5gjrMnYh9Ee4sZ9mC4aX-59" target="5gjrMnYh9Ee4sZ9mC4aX-16">
          <mxGeometry relative="1" as="geometry">
            <Array as="points">
              <mxPoint x="580" y="720" />
              <mxPoint x="400" y="720" />
            </Array>
            <mxPoint x="560" y="710" as="sourcePoint" />
          </mxGeometry>
        </mxCell>
        <mxCell id="5gjrMnYh9Ee4sZ9mC4aX-10" style="edgeStyle=orthogonalEdgeStyle;rounded=0;orthogonalLoop=1;jettySize=auto;html=1;entryX=1;entryY=0.75;entryDx=0;entryDy=0;jumpStyle=arc;" edge="1" parent="1" source="5gjrMnYh9Ee4sZ9mC4aX-59" target="5gjrMnYh9Ee4sZ9mC4aX-46">
          <mxGeometry relative="1" as="geometry">
            <Array as="points">
              <mxPoint x="660" y="750" />
              <mxPoint x="1330" y="750" />
              <mxPoint x="1330" y="530" />
            </Array>
            <mxPoint x="680" y="730" as="sourcePoint" />
          </mxGeometry>
        </mxCell>
        <mxCell id="5gjrMnYh9Ee4sZ9mC4aX-11" style="edgeStyle=orthogonalEdgeStyle;rounded=0;orthogonalLoop=1;jettySize=auto;html=1;jumpStyle=arc;" edge="1" parent="1" target="5gjrMnYh9Ee4sZ9mC4aX-53">
          <mxGeometry relative="1" as="geometry">
            <Array as="points">
              <mxPoint x="1520" y="270" />
            </Array>
            <mxPoint x="1460" y="270" as="sourcePoint" />
          </mxGeometry>
        </mxCell>
        <mxCell id="5gjrMnYh9Ee4sZ9mC4aX-12" style="edgeStyle=orthogonalEdgeStyle;rounded=0;orthogonalLoop=1;jettySize=auto;html=1;entryX=0.25;entryY=0;entryDx=0;entryDy=0;endFill=1;snapToPoint=0;" edge="1" parent="1" target="5gjrMnYh9Ee4sZ9mC4aX-53">
          <mxGeometry relative="1" as="geometry">
            <Array as="points">
              <mxPoint x="1505" y="280" />
            </Array>
            <mxPoint x="1445" y="280" as="sourcePoint" />
          </mxGeometry>
        </mxCell>
        <mxCell id="5gjrMnYh9Ee4sZ9mC4aX-13" value="PipelineController" style="rounded=0;whiteSpace=wrap;html=1;direction=south;" vertex="1" parent="1">
          <mxGeometry x="340" y="780" width="1210" height="40" as="geometry" />
        </mxCell>
        <mxCell id="5gjrMnYh9Ee4sZ9mC4aX-14" style="edgeStyle=orthogonalEdgeStyle;rounded=0;orthogonalLoop=1;jettySize=auto;html=1;exitX=1;exitY=0.5;exitDx=0;exitDy=0;fillColor=#f8cecc;strokeColor=#b85450;" edge="1" parent="1" source="5gjrMnYh9Ee4sZ9mC4aX-16" target="5gjrMnYh9Ee4sZ9mC4aX-19">
          <mxGeometry relative="1" as="geometry" />
        </mxCell>
        <mxCell id="5gjrMnYh9Ee4sZ9mC4aX-15" style="edgeStyle=orthogonalEdgeStyle;rounded=0;orthogonalLoop=1;jettySize=auto;html=1;entryX=0.25;entryY=1;entryDx=0;entryDy=0;" edge="1" parent="1" target="5gjrMnYh9Ee4sZ9mC4aX-16">
          <mxGeometry relative="1" as="geometry">
            <mxPoint x="360" y="780" as="sourcePoint" />
          </mxGeometry>
        </mxCell>
        <mxCell id="5gjrMnYh9Ee4sZ9mC4aX-16" value="PC" style="rounded=0;whiteSpace=wrap;html=1;fillColor=#dae8fc;strokeColor=#6c8ebf;" vertex="1" parent="1">
          <mxGeometry x="340" y="500" width="80" height="40" as="geometry" />
        </mxCell>
        <mxCell id="5gjrMnYh9Ee4sZ9mC4aX-17" style="edgeStyle=orthogonalEdgeStyle;rounded=0;orthogonalLoop=1;jettySize=auto;html=1;exitX=1;exitY=0.5;exitDx=0;exitDy=0;entryX=0;entryY=0.5;entryDx=0;entryDy=0;fillColor=#f8cecc;strokeColor=#b85450;" edge="1" parent="1" source="5gjrMnYh9Ee4sZ9mC4aX-19">
          <mxGeometry relative="1" as="geometry">
            <mxPoint x="540" y="520" as="targetPoint" />
          </mxGeometry>
        </mxCell>
        <mxCell id="5gjrMnYh9Ee4sZ9mC4aX-18" style="edgeStyle=orthogonalEdgeStyle;rounded=0;orthogonalLoop=1;jettySize=auto;html=1;entryX=0.5;entryY=1;entryDx=0;entryDy=0;jumpStyle=arc;" edge="1" parent="1" target="5gjrMnYh9Ee4sZ9mC4aX-19">
          <mxGeometry relative="1" as="geometry">
            <mxPoint x="480" y="780" as="sourcePoint" />
          </mxGeometry>
        </mxCell>
        <mxCell id="5gjrMnYh9Ee4sZ9mC4aX-19" value="IF&lt;br&gt;|&lt;br&gt;ID" style="rounded=0;whiteSpace=wrap;html=1;fillColor=#dae8fc;strokeColor=#6c8ebf;" vertex="1" parent="1">
          <mxGeometry x="460" y="340" width="40" height="360" as="geometry" />
        </mxCell>
        <mxCell id="5gjrMnYh9Ee4sZ9mC4aX-20" style="edgeStyle=orthogonalEdgeStyle;rounded=0;orthogonalLoop=1;jettySize=auto;html=1;exitX=1;exitY=0.25;exitDx=0;exitDy=0;entryX=0;entryY=0.5;entryDx=0;entryDy=0;" edge="1" parent="1" source="5gjrMnYh9Ee4sZ9mC4aX-24" target="5gjrMnYh9Ee4sZ9mC4aX-36">
          <mxGeometry relative="1" as="geometry" />
        </mxCell>
        <mxCell id="5gjrMnYh9Ee4sZ9mC4aX-21" style="edgeStyle=orthogonalEdgeStyle;rounded=0;orthogonalLoop=1;jettySize=auto;html=1;exitX=1;exitY=0.5;exitDx=0;exitDy=0;entryX=-0.03;entryY=0.482;entryDx=0;entryDy=0;entryPerimeter=0;fillColor=#f8cecc;strokeColor=#b85450;" edge="1" parent="1" source="5gjrMnYh9Ee4sZ9mC4aX-24" target="5gjrMnYh9Ee4sZ9mC4aX-39">
          <mxGeometry relative="1" as="geometry" />
        </mxCell>
        <mxCell id="5gjrMnYh9Ee4sZ9mC4aX-22" style="edgeStyle=orthogonalEdgeStyle;rounded=0;orthogonalLoop=1;jettySize=auto;html=1;entryX=0.5;entryY=1;entryDx=0;entryDy=0;jumpStyle=arc;" edge="1" parent="1" target="5gjrMnYh9Ee4sZ9mC4aX-24">
          <mxGeometry relative="1" as="geometry">
            <mxPoint x="760" y="780" as="sourcePoint" />
          </mxGeometry>
        </mxCell>
        <mxCell id="5gjrMnYh9Ee4sZ9mC4aX-23" style="edgeStyle=orthogonalEdgeStyle;rounded=0;orthogonalLoop=1;jettySize=auto;html=1;exitX=0.25;exitY=0;exitDx=0;exitDy=0;entryX=0.75;entryY=0;entryDx=0;entryDy=0;" edge="1" parent="1" source="5gjrMnYh9Ee4sZ9mC4aX-24" target="5gjrMnYh9Ee4sZ9mC4aX-59">
          <mxGeometry relative="1" as="geometry">
            <Array as="points">
              <mxPoint x="750" y="300" />
              <mxPoint x="660" y="300" />
            </Array>
            <mxPoint x="680" y="300" as="targetPoint" />
          </mxGeometry>
        </mxCell>
        <mxCell id="5gjrMnYh9Ee4sZ9mC4aX-24" value="ID&lt;br&gt;|&lt;br&gt;EX" style="rounded=0;whiteSpace=wrap;html=1;fillColor=#dae8fc;strokeColor=#6c8ebf;" vertex="1" parent="1">
          <mxGeometry x="740" y="340" width="40" height="360" as="geometry" />
        </mxCell>
        <mxCell id="5gjrMnYh9Ee4sZ9mC4aX-25" style="edgeStyle=orthogonalEdgeStyle;rounded=0;orthogonalLoop=1;jettySize=auto;html=1;exitX=1;exitY=0.5;exitDx=0;exitDy=0;entryX=0;entryY=0.5;entryDx=0;entryDy=0;fillColor=#f8cecc;strokeColor=#b85450;" edge="1" parent="1" source="5gjrMnYh9Ee4sZ9mC4aX-27" target="5gjrMnYh9Ee4sZ9mC4aX-42">
          <mxGeometry relative="1" as="geometry" />
        </mxCell>
        <mxCell id="5gjrMnYh9Ee4sZ9mC4aX-26" style="edgeStyle=orthogonalEdgeStyle;rounded=0;orthogonalLoop=1;jettySize=auto;html=1;entryX=0.5;entryY=1;entryDx=0;entryDy=0;jumpStyle=arc;" edge="1" parent="1" target="5gjrMnYh9Ee4sZ9mC4aX-27">
          <mxGeometry relative="1" as="geometry">
            <mxPoint x="960" y="780" as="sourcePoint" />
          </mxGeometry>
        </mxCell>
        <mxCell id="5gjrMnYh9Ee4sZ9mC4aX-27" value="EX&lt;br&gt;|&lt;br&gt;MEM" style="rounded=0;whiteSpace=wrap;html=1;fillColor=#dae8fc;strokeColor=#6c8ebf;" vertex="1" parent="1">
          <mxGeometry x="940" y="340" width="40" height="360" as="geometry" />
        </mxCell>
        <mxCell id="5gjrMnYh9Ee4sZ9mC4aX-28" style="edgeStyle=orthogonalEdgeStyle;rounded=0;orthogonalLoop=1;jettySize=auto;html=1;exitX=1;exitY=0.5;exitDx=0;exitDy=0;entryX=0;entryY=0.5;entryDx=0;entryDy=0;" edge="1" parent="1" source="5gjrMnYh9Ee4sZ9mC4aX-32" target="5gjrMnYh9Ee4sZ9mC4aX-46">
          <mxGeometry relative="1" as="geometry" />
        </mxCell>
        <mxCell id="5gjrMnYh9Ee4sZ9mC4aX-29" style="edgeStyle=orthogonalEdgeStyle;rounded=0;orthogonalLoop=1;jettySize=auto;html=1;exitX=1;exitY=0.25;exitDx=0;exitDy=0;entryX=0;entryY=0.5;entryDx=0;entryDy=0;fillColor=#f8cecc;strokeColor=#b85450;" edge="1" parent="1" source="5gjrMnYh9Ee4sZ9mC4aX-32" target="5gjrMnYh9Ee4sZ9mC4aX-44">
          <mxGeometry relative="1" as="geometry" />
        </mxCell>
        <mxCell id="5gjrMnYh9Ee4sZ9mC4aX-30" style="edgeStyle=orthogonalEdgeStyle;rounded=0;orthogonalLoop=1;jettySize=auto;html=1;exitX=1;exitY=0.75;exitDx=0;exitDy=0;entryX=0;entryY=0.5;entryDx=0;entryDy=0;" edge="1" parent="1" source="5gjrMnYh9Ee4sZ9mC4aX-32" target="5gjrMnYh9Ee4sZ9mC4aX-48">
          <mxGeometry relative="1" as="geometry" />
        </mxCell>
        <mxCell id="5gjrMnYh9Ee4sZ9mC4aX-31" style="edgeStyle=orthogonalEdgeStyle;rounded=0;orthogonalLoop=1;jettySize=auto;html=1;entryX=0.5;entryY=1;entryDx=0;entryDy=0;jumpStyle=arc;" edge="1" parent="1" target="5gjrMnYh9Ee4sZ9mC4aX-32">
          <mxGeometry relative="1" as="geometry">
            <mxPoint x="1160" y="780" as="sourcePoint" />
          </mxGeometry>
        </mxCell>
        <mxCell id="5gjrMnYh9Ee4sZ9mC4aX-32" value="MEM&lt;br&gt;|&lt;br&gt;WB" style="rounded=0;whiteSpace=wrap;html=1;fillColor=#dae8fc;strokeColor=#6c8ebf;" vertex="1" parent="1">
          <mxGeometry x="1140" y="340" width="40" height="360" as="geometry" />
        </mxCell>
        <mxCell id="5gjrMnYh9Ee4sZ9mC4aX-33" style="edgeStyle=orthogonalEdgeStyle;rounded=0;orthogonalLoop=1;jettySize=auto;html=1;exitX=1;exitY=0.5;exitDx=0;exitDy=0;entryX=0;entryY=0.5;entryDx=0;entryDy=0;fillColor=#f8cecc;strokeColor=#b85450;" edge="1" parent="1" target="5gjrMnYh9Ee4sZ9mC4aX-24">
          <mxGeometry relative="1" as="geometry">
            <mxPoint x="700" y="520" as="sourcePoint" />
          </mxGeometry>
        </mxCell>
        <mxCell id="5gjrMnYh9Ee4sZ9mC4aX-34" style="edgeStyle=orthogonalEdgeStyle;rounded=0;orthogonalLoop=1;jettySize=auto;html=1;exitX=0.5;exitY=1;exitDx=0;exitDy=0;" edge="1" parent="1" source="5gjrMnYh9Ee4sZ9mC4aX-59">
          <mxGeometry relative="1" as="geometry">
            <mxPoint x="660" y="720" as="sourcePoint" />
            <mxPoint x="620" y="780" as="targetPoint" />
            <Array as="points">
              <mxPoint x="620" y="780" />
            </Array>
          </mxGeometry>
        </mxCell>
        <mxCell id="5gjrMnYh9Ee4sZ9mC4aX-35" style="edgeStyle=orthogonalEdgeStyle;rounded=0;orthogonalLoop=1;jettySize=auto;html=1;exitX=0.5;exitY=1;exitDx=0;exitDy=0;entryX=0.5;entryY=0;entryDx=0;entryDy=0;" edge="1" parent="1" source="5gjrMnYh9Ee4sZ9mC4aX-36" target="5gjrMnYh9Ee4sZ9mC4aX-39">
          <mxGeometry relative="1" as="geometry" />
        </mxCell>
        <mxCell id="5gjrMnYh9Ee4sZ9mC4aX-36" value="MULT&lt;br&gt;DIV" style="rounded=0;whiteSpace=wrap;html=1;" vertex="1" parent="1">
          <mxGeometry x="820" y="410" width="80" height="40" as="geometry" />
        </mxCell>
        <mxCell id="5gjrMnYh9Ee4sZ9mC4aX-37" style="edgeStyle=orthogonalEdgeStyle;rounded=0;orthogonalLoop=1;jettySize=auto;html=1;exitX=1;exitY=0.5;exitDx=0;exitDy=0;entryX=0;entryY=0.5;entryDx=0;entryDy=0;fillColor=#f8cecc;strokeColor=#b85450;" edge="1" parent="1" source="5gjrMnYh9Ee4sZ9mC4aX-39" target="5gjrMnYh9Ee4sZ9mC4aX-27">
          <mxGeometry relative="1" as="geometry" />
        </mxCell>
        <mxCell id="5gjrMnYh9Ee4sZ9mC4aX-38" style="edgeStyle=orthogonalEdgeStyle;rounded=0;orthogonalLoop=1;jettySize=auto;html=1;exitX=0.25;exitY=1;exitDx=0;exitDy=0;jumpStyle=arc;" edge="1" parent="1" source="5gjrMnYh9Ee4sZ9mC4aX-39">
          <mxGeometry relative="1" as="geometry">
            <mxPoint x="840" y="780" as="targetPoint" />
          </mxGeometry>
        </mxCell>
        <mxCell id="5gjrMnYh9Ee4sZ9mC4aX-39" value="ALU" style="rounded=0;whiteSpace=wrap;html=1;fillColor=#dae8fc;strokeColor=#6c8ebf;" vertex="1" parent="1">
          <mxGeometry x="820" y="500" width="80" height="40" as="geometry" />
        </mxCell>
        <mxCell id="5gjrMnYh9Ee4sZ9mC4aX-40" style="edgeStyle=orthogonalEdgeStyle;rounded=0;orthogonalLoop=1;jettySize=auto;html=1;exitX=1;exitY=0.5;exitDx=0;exitDy=0;entryX=0;entryY=0.5;entryDx=0;entryDy=0;fillColor=#f8cecc;strokeColor=#b85450;" edge="1" parent="1" source="5gjrMnYh9Ee4sZ9mC4aX-42" target="5gjrMnYh9Ee4sZ9mC4aX-32">
          <mxGeometry relative="1" as="geometry" />
        </mxCell>
        <mxCell id="5gjrMnYh9Ee4sZ9mC4aX-41" style="edgeStyle=orthogonalEdgeStyle;rounded=0;orthogonalLoop=1;jettySize=auto;html=1;exitX=0.5;exitY=1;exitDx=0;exitDy=0;jumpStyle=arc;" edge="1" parent="1" source="5gjrMnYh9Ee4sZ9mC4aX-42">
          <mxGeometry relative="1" as="geometry">
            <mxPoint x="1060" y="780" as="targetPoint" />
          </mxGeometry>
        </mxCell>
        <mxCell id="5gjrMnYh9Ee4sZ9mC4aX-42" value="MEM" style="rounded=0;whiteSpace=wrap;html=1;fillColor=#dae8fc;strokeColor=#6c8ebf;" vertex="1" parent="1">
          <mxGeometry x="1020" y="500" width="80" height="40" as="geometry" />
        </mxCell>
        <mxCell id="5gjrMnYh9Ee4sZ9mC4aX-43" style="edgeStyle=orthogonalEdgeStyle;rounded=0;orthogonalLoop=1;jettySize=auto;html=1;exitX=1;exitY=0.5;exitDx=0;exitDy=0;entryX=0;entryY=0.5;entryDx=0;entryDy=0;fillColor=#f8cecc;strokeColor=#b85450;" edge="1" parent="1" source="5gjrMnYh9Ee4sZ9mC4aX-44" target="5gjrMnYh9Ee4sZ9mC4aX-50">
          <mxGeometry relative="1" as="geometry" />
        </mxCell>
        <mxCell id="5gjrMnYh9Ee4sZ9mC4aX-44" value="RegFIle" style="rounded=0;whiteSpace=wrap;html=1;fillColor=#dae8fc;strokeColor=#6c8ebf;" vertex="1" parent="1">
          <mxGeometry x="1220" y="410" width="80" height="40" as="geometry" />
        </mxCell>
        <mxCell id="5gjrMnYh9Ee4sZ9mC4aX-45" style="edgeStyle=orthogonalEdgeStyle;rounded=0;orthogonalLoop=1;jettySize=auto;html=1;exitX=1;exitY=0.5;exitDx=0;exitDy=0;entryX=0;entryY=0.5;entryDx=0;entryDy=0;" edge="1" parent="1" source="5gjrMnYh9Ee4sZ9mC4aX-46" target="5gjrMnYh9Ee4sZ9mC4aX-52">
          <mxGeometry relative="1" as="geometry" />
        </mxCell>
        <mxCell id="5gjrMnYh9Ee4sZ9mC4aX-46" value="CP0" style="rounded=0;whiteSpace=wrap;html=1;" vertex="1" parent="1">
          <mxGeometry x="1220" y="500" width="80" height="40" as="geometry" />
        </mxCell>
        <mxCell id="5gjrMnYh9Ee4sZ9mC4aX-47" style="edgeStyle=orthogonalEdgeStyle;rounded=0;orthogonalLoop=1;jettySize=auto;html=1;exitX=1;exitY=0.5;exitDx=0;exitDy=0;entryX=0;entryY=0.5;entryDx=0;entryDy=0;" edge="1" parent="1" source="5gjrMnYh9Ee4sZ9mC4aX-48" target="5gjrMnYh9Ee4sZ9mC4aX-53">
          <mxGeometry relative="1" as="geometry" />
        </mxCell>
        <mxCell id="5gjrMnYh9Ee4sZ9mC4aX-48" value="HILO" style="rounded=0;whiteSpace=wrap;html=1;" vertex="1" parent="1">
          <mxGeometry x="1220" y="590" width="80" height="40" as="geometry" />
        </mxCell>
        <mxCell id="5gjrMnYh9Ee4sZ9mC4aX-49" style="edgeStyle=orthogonalEdgeStyle;rounded=0;orthogonalLoop=1;jettySize=auto;html=1;exitX=0.25;exitY=0;exitDx=0;exitDy=0;entryX=0.25;entryY=0;entryDx=0;entryDy=0;" edge="1" parent="1" target="5gjrMnYh9Ee4sZ9mC4aX-50">
          <mxGeometry relative="1" as="geometry">
            <mxPoint x="1385" y="280" as="sourcePoint" />
          </mxGeometry>
        </mxCell>
        <mxCell id="5gjrMnYh9Ee4sZ9mC4aX-50" value="RegRead&lt;br&gt;Proxy" style="rounded=0;whiteSpace=wrap;html=1;fillColor=#dae8fc;strokeColor=#6c8ebf;" vertex="1" parent="1">
          <mxGeometry x="1370" y="390" width="60" height="80" as="geometry" />
        </mxCell>
        <mxCell id="5gjrMnYh9Ee4sZ9mC4aX-51" style="edgeStyle=orthogonalEdgeStyle;rounded=0;orthogonalLoop=1;jettySize=auto;html=1;exitX=0.25;exitY=0;exitDx=0;exitDy=0;entryX=0.25;entryY=0;entryDx=0;entryDy=0;" edge="1" parent="1" target="5gjrMnYh9Ee4sZ9mC4aX-52">
          <mxGeometry relative="1" as="geometry">
            <mxPoint x="1445" y="280" as="sourcePoint" />
          </mxGeometry>
        </mxCell>
        <mxCell id="5gjrMnYh9Ee4sZ9mC4aX-52" value="CP0Read&lt;br&gt;Proxy" style="rounded=0;whiteSpace=wrap;html=1;" vertex="1" parent="1">
          <mxGeometry x="1430" y="480" width="60" height="80" as="geometry" />
        </mxCell>
        <mxCell id="5gjrMnYh9Ee4sZ9mC4aX-53" value="HILORead&lt;br&gt;Proxy" style="rounded=0;whiteSpace=wrap;html=1;" vertex="1" parent="1">
          <mxGeometry x="1490" y="570" width="60" height="80" as="geometry" />
        </mxCell>
        <mxCell id="5gjrMnYh9Ee4sZ9mC4aX-54" style="edgeStyle=orthogonalEdgeStyle;rounded=0;orthogonalLoop=1;jettySize=auto;html=1;exitX=0.5;exitY=0;exitDx=0;exitDy=0;entryX=0.5;entryY=0;entryDx=0;entryDy=0;jumpStyle=arc;" edge="1" parent="1" target="5gjrMnYh9Ee4sZ9mC4aX-50">
          <mxGeometry relative="1" as="geometry">
            <mxPoint x="1400" y="270" as="sourcePoint" />
          </mxGeometry>
        </mxCell>
        <mxCell id="5gjrMnYh9Ee4sZ9mC4aX-55" style="edgeStyle=orthogonalEdgeStyle;rounded=0;orthogonalLoop=1;jettySize=auto;html=1;exitX=0.5;exitY=0;exitDx=0;exitDy=0;entryX=0.5;entryY=0;entryDx=0;entryDy=0;jumpStyle=arc;" edge="1" parent="1" target="5gjrMnYh9Ee4sZ9mC4aX-52">
          <mxGeometry relative="1" as="geometry">
            <mxPoint x="1460" y="270" as="sourcePoint" />
          </mxGeometry>
        </mxCell>
        <mxCell id="5gjrMnYh9Ee4sZ9mC4aX-56" style="edgeStyle=orthogonalEdgeStyle;rounded=0;orthogonalLoop=1;jettySize=auto;html=1;exitX=0.75;exitY=0;exitDx=0;exitDy=0;jumpStyle=arc;entryX=0.5;entryY=0;entryDx=0;entryDy=0;" edge="1" parent="1" source="5gjrMnYh9Ee4sZ9mC4aX-50" target="5gjrMnYh9Ee4sZ9mC4aX-59">
          <mxGeometry relative="1" as="geometry">
            <Array as="points">
              <mxPoint x="1415" y="260" />
              <mxPoint x="620" y="260" />
            </Array>
            <mxPoint x="660" y="260" as="targetPoint" />
          </mxGeometry>
        </mxCell>
        <mxCell id="5gjrMnYh9Ee4sZ9mC4aX-57" style="edgeStyle=orthogonalEdgeStyle;rounded=0;orthogonalLoop=1;jettySize=auto;html=1;entryX=0.75;entryY=0;entryDx=0;entryDy=0;jumpStyle=arc;" edge="1" parent="1" target="5gjrMnYh9Ee4sZ9mC4aX-24">
          <mxGeometry relative="1" as="geometry">
            <Array as="points">
              <mxPoint x="770" y="250" />
            </Array>
            <mxPoint x="1060" y="250" as="sourcePoint" />
          </mxGeometry>
        </mxCell>
        <mxCell id="5gjrMnYh9Ee4sZ9mC4aX-58" style="edgeStyle=orthogonalEdgeStyle;rounded=0;orthogonalLoop=1;jettySize=auto;html=1;entryX=0.5;entryY=0;entryDx=0;entryDy=0;jumpStyle=arc;" edge="1" parent="1" target="5gjrMnYh9Ee4sZ9mC4aX-42">
          <mxGeometry relative="1" as="geometry">
            <mxPoint x="1060" y="250" as="sourcePoint" />
          </mxGeometry>
        </mxCell>
        <mxCell id="5gjrMnYh9Ee4sZ9mC4aX-59" value="&lt;blockquote style=&quot;margin: 0 0 0 40px ; border: none ; padding: 0px&quot;&gt;&lt;/blockquote&gt;" style="rounded=0;whiteSpace=wrap;html=1;align=left;" vertex="1" parent="1">
          <mxGeometry x="540" y="330" width="160" height="360" as="geometry" />
        </mxCell>
        <mxCell id="5gjrMnYh9Ee4sZ9mC4aX-60" value="OperandGen" style="rounded=0;whiteSpace=wrap;html=1;" vertex="1" parent="1">
          <mxGeometry x="580" y="340" width="80" height="40" as="geometry" />
        </mxCell>
        <mxCell id="5gjrMnYh9Ee4sZ9mC4aX-61" value="CP0Gen" style="rounded=0;whiteSpace=wrap;html=1;" vertex="1" parent="1">
          <mxGeometry x="580" y="540" width="80" height="40" as="geometry" />
        </mxCell>
        <mxCell id="5gjrMnYh9Ee4sZ9mC4aX-62" value="ExceptionGen" style="rounded=0;whiteSpace=wrap;html=1;" vertex="1" parent="1">
          <mxGeometry x="580" y="590" width="80" height="40" as="geometry" />
        </mxCell>
        <mxCell id="5gjrMnYh9Ee4sZ9mC4aX-63" value="FunctGen" style="rounded=0;whiteSpace=wrap;html=1;fillColor=#dae8fc;strokeColor=#6c8ebf;" vertex="1" parent="1">
          <mxGeometry x="580" y="440" width="80" height="40" as="geometry" />
        </mxCell>
        <mxCell id="5gjrMnYh9Ee4sZ9mC4aX-64" value="MemGen" style="rounded=0;whiteSpace=wrap;html=1;" vertex="1" parent="1">
          <mxGeometry x="580" y="490" width="80" height="40" as="geometry" />
        </mxCell>
        <mxCell id="5gjrMnYh9Ee4sZ9mC4aX-65" value="BranchGen" style="rounded=0;whiteSpace=wrap;html=1;fillColor=#dae8fc;strokeColor=#6c8ebf;" vertex="1" parent="1">
          <mxGeometry x="580" y="640" width="80" height="40" as="geometry" />
        </mxCell>
        <mxCell id="5gjrMnYh9Ee4sZ9mC4aX-66" value="RegGen" style="rounded=0;whiteSpace=wrap;html=1;fillColor=#dae8fc;strokeColor=#6c8ebf;" vertex="1" parent="1">
          <mxGeometry x="580" y="390" width="80" height="40" as="geometry" />
        </mxCell>
        <mxCell id="5gjrMnYh9Ee4sZ9mC4aX-67" style="edgeStyle=orthogonalEdgeStyle;rounded=0;orthogonalLoop=1;jettySize=auto;html=1;exitX=0.5;exitY=1;exitDx=0;exitDy=0;" edge="1" parent="1" source="5gjrMnYh9Ee4sZ9mC4aX-59" target="5gjrMnYh9Ee4sZ9mC4aX-59">
          <mxGeometry x="540" y="330" as="geometry" />
        </mxCell>
        <mxCell id="5gjrMnYh9Ee4sZ9mC4aX-68" value="" style="endArrow=none;html=1;entryX=0.75;entryY=0;entryDx=0;entryDy=0;rounded=0;jumpStyle=arc;" edge="1" parent="1" target="5gjrMnYh9Ee4sZ9mC4aX-52">
          <mxGeometry width="50" height="50" relative="1" as="geometry">
            <mxPoint x="1060" y="250" as="sourcePoint" />
            <mxPoint x="1280" y="470" as="targetPoint" />
            <Array as="points">
              <mxPoint x="1475" y="250" />
            </Array>
          </mxGeometry>
        </mxCell>
        <mxCell id="5gjrMnYh9Ee4sZ9mC4aX-69" style="edgeStyle=orthogonalEdgeStyle;rounded=0;jumpStyle=arc;orthogonalLoop=1;jettySize=auto;html=1;exitX=0.5;exitY=0;exitDx=0;exitDy=0;endFill=1;entryX=0.5;entryY=0;entryDx=0;entryDy=0;" edge="1" parent="1" target="5gjrMnYh9Ee4sZ9mC4aX-46">
          <mxGeometry relative="1" as="geometry">
            <mxPoint x="577.5845336914062" y="330" as="sourcePoint" />
            <Array as="points">
              <mxPoint x="578" y="230" />
              <mxPoint x="1350" y="230" />
              <mxPoint x="1350" y="480" />
              <mxPoint x="1260" y="480" />
            </Array>
          </mxGeometry>
        </mxCell>
        <mxCell id="5gjrMnYh9Ee4sZ9mC4aX-70" style="edgeStyle=orthogonalEdgeStyle;rounded=0;orthogonalLoop=1;jettySize=auto;html=1;exitX=0.75;exitY=0;exitDx=0;exitDy=0;entryX=1;entryY=0.25;entryDx=0;entryDy=0;jumpStyle=arc;" edge="1" parent="1" source="5gjrMnYh9Ee4sZ9mC4aX-42" target="5gjrMnYh9Ee4sZ9mC4aX-46">
          <mxGeometry relative="1" as="geometry">
            <Array as="points">
              <mxPoint x="1080" y="310" />
              <mxPoint x="1330" y="310" />
              <mxPoint x="1330" y="510" />
            </Array>
          </mxGeometry>
        </mxCell>
        <mxCell id="5gjrMnYh9Ee4sZ9mC4aX-71" style="edgeStyle=orthogonalEdgeStyle;rounded=0;jumpStyle=arc;orthogonalLoop=1;jettySize=auto;html=1;entryX=0.5;entryY=0;entryDx=0;entryDy=0;endFill=1;" edge="1" parent="1" target="5gjrMnYh9Ee4sZ9mC4aX-44">
          <mxGeometry relative="1" as="geometry">
            <mxPoint x="590" y="330" as="sourcePoint" />
            <Array as="points">
              <mxPoint x="590" y="330" />
              <mxPoint x="590" y="240" />
              <mxPoint x="1260" y="240" />
            </Array>
          </mxGeometry>
        </mxCell>
      </root>
    </mxGraphModel>
  </diagram>
</mxfile>
